<svg width="63" height="63" viewBox="0 0 63 63" fill="none" xmlns="http://www.w3.org/2000/svg">
<path fill-rule="evenodd" clip-rule="evenodd" d="M42.9362 11.8976C43.462 12.2701 41.7434 13.961 42.1668 13.5942C44.2964 11.7478 46.4322 12.2532 47.3579 12.3814C46.0246 11.6074 45.4803 11.0061 44.7864 11.0265C44.3311 11.0408 44.0659 11.5623 42.9362 11.8976ZM30.3205 20.4723C30.6238 20.3618 30.7339 20.0331 31.3289 20.092C31.7015 20.3984 32.0256 20.413 32.3739 20.5735C33.3681 21.0012 33.3554 22.045 33.8315 21.8079C34.4346 21.5077 35.4042 22.0866 35.9569 22.2359C38.9841 23.0546 39.1742 22.3271 41.1218 24.0214C40.7808 26.8693 38.8209 26.596 37.8567 24.4394C37.2328 23.0442 34.5936 24.003 33.6371 24.202C32.4828 24.3101 31.9397 22.3571 31.3997 22.0519C30.155 21.3479 29.7043 22.3098 27.9549 21.2995C29.1304 19.9673 28.0369 20.9507 30.3205 20.4723ZM15.1472 51.2991C15.1891 50.9085 15.2211 50.5801 14.967 50.4431C13.2523 49.5182 14.6087 48.5748 14.7457 47.9882C16.2572 46.4402 14.5571 46.822 14.8993 44.0296C15.3273 40.5374 14.7615 40.2764 12.6207 39.0513C12.0122 38.7034 11.1231 40.3823 10.0369 38.1599C8.41265 37.2804 9.19938 36.5479 8.91994 36.0545C8.06355 34.5453 7.41962 36.0776 6.26417 34.5876C6.10828 34.3336 5.97088 33.7486 5.86465 32.9876C5.83655 32.4953 5.82192 31.9996 5.82192 31.4996C5.82192 28.4524 6.35308 25.5291 7.32725 22.8175C7.62862 22.426 7.9731 22.0916 8.36492 21.8352C8.72095 21.6024 9.31446 21.54 10.0365 21.2167C10.5781 20.9742 10.6062 19.8669 11.2936 19.7472C11.8182 19.6559 13.0141 19.6021 13.621 19.5882C15.3477 18.8958 13.4078 16.3316 15.8554 16.3404C16.8869 16.3439 17.2591 15.2743 18.3395 15.9394C18.8102 16.2288 19.018 14.7089 17.8464 13.2817C17.5243 12.8894 18.3283 12.2882 18.3264 11.6724C18.3252 11.2255 17.8741 10.4638 17.6359 9.88186C21.6349 7.3119 26.3934 5.82119 31.5002 5.82119C34.6001 5.82119 37.5723 6.37044 40.3235 7.37733C41.5975 7.99239 42.8253 8.62401 44.2233 9.89571C43.6432 10.296 43.4566 10.5635 43.0205 10.8102C41.1853 11.8495 40.6318 11.2694 40.0857 11.0646C37.3849 10.0512 39.0422 8.88497 38.2605 8.67751C37.1855 8.39192 35.6563 9.51197 34.3526 9.82912C33.8715 9.94613 32.7888 9.0982 32.3747 9.22714C30.4952 9.81257 29.9987 11.4938 30.2512 12.3302C30.7088 13.8455 29.7993 14.4202 28.8925 16.8162C25.9365 14.7169 28.0746 15.9078 26.3976 13.2397C22.9786 14.9229 23.3404 15.994 23.1106 17.2091C23.7665 17.2638 24.2453 16.7261 24.7053 17.3031C25.6821 18.5286 26.8768 17.3096 25.0952 19.1348C24.0836 20.1717 22.6545 18.0983 22.8177 20.3203C22.9944 22.7336 21.8401 22.3783 23.5425 22.8159C24.8427 23.1508 24.2341 24.2482 22.3843 24.4302C21.6904 24.4983 21.797 25.8674 20.8655 26.4124C20.0072 26.9147 20.1319 27.8342 19.9098 28.7976C18.9915 29.9897 19.769 30.5558 19.5203 31.2325C19.1081 32.3537 20.1323 32.9595 19.2536 33.8725C18.7679 34.3775 19.8883 35.6638 20.9364 35.9294C21.9733 36.1923 22.5891 36.3582 23.7088 36.5352C26.3411 36.9521 26.8626 35.74 28.2101 36.3135C28.7324 36.536 29.5064 37.882 29.926 39.2099C30.5006 41.0281 31.4721 41.0639 31.7873 41.7036C32.5771 43.3025 32.6603 44.1716 32.1776 45.9725C31.9667 46.7589 32.8908 47.5314 32.8997 49.0221C32.9104 50.7445 34.2075 52.2964 35.2333 52.6767C35.878 52.9157 35.0401 51.3834 37.453 51.176C38.8536 51.0555 39.9456 50.3092 40.608 49.1468C41.0949 48.2923 41.6818 47.7573 41.8296 46.3624C42.7487 47.1665 42.3104 48.6218 44.4762 48.3327C44.7125 47.245 45.7994 47.8324 46.0842 47.352C46.448 46.7385 46.411 45.9083 46.6312 45.1777C47.4148 42.5804 45.923 44.8259 43.7645 43.3972C43.497 42.2025 43.701 40.7229 44.4546 40.4346C46.1612 39.7826 45.5069 38.7153 47.4483 37.31C48.0033 36.9078 49.1838 35.8536 48.4348 35.1631C47.9183 34.6873 49.1165 34.3929 48.5449 33.558C47.7955 32.819 46.4018 33.3906 45.6305 33.2078C44.9419 33.0446 44.0505 32.9118 43.9054 32.1967C43.6517 30.9434 42.3261 30.8611 42.7611 26.9559C43.2099 26.4809 42.8815 28.5536 44.0023 29.9812C44.5335 30.6571 45.2071 30.6421 45.9307 32.4053C46.966 32.0169 47.6581 32.286 48.5387 31.8841C51.0432 30.7425 49.9728 29.395 51.131 27.6114C52.5212 28.5721 53.2791 27.668 53.9496 28.9116C54.3795 29.7095 54.5492 30.4604 54.4657 31.3587C54.3479 32.6201 54.388 32.8518 55.331 33.5092C55.7416 33.7951 54.8221 34.8194 55.9999 35.1511C56.8875 34.0807 56.6319 33.637 56.4668 33.0742C56.1392 31.9534 56.6485 31.7128 56.6107 31.0439C56.5953 30.7637 56.8821 30.5732 57.1477 30.2364C57.1681 30.6544 57.1785 31.0755 57.1785 31.4988C57.1785 34.1962 56.762 36.7962 55.9911 39.2387C55.9514 39.2576 55.9114 39.2753 55.8702 39.2892C55.5804 39.3869 55.64 39.9504 55.3437 40.1567C55.0227 40.3804 54.7251 39.9662 53.9896 40.7048C53.4019 41.4392 53.3622 42.0089 53.3511 42.5747C53.3226 44.0561 53.791 44.9221 52.3038 45.7662C50.9066 47.3647 49.765 46.2804 49.7076 47.4859C49.6588 48.5182 48.8432 48.7234 48.8632 50.4135L48.8628 50.4177C44.2918 54.6146 38.1954 57.1777 31.5006 57.1777C25.2864 57.1784 19.5885 54.9714 15.1472 51.2991ZM33.4381 14.4841C34.8087 14.0083 35.5404 14.1284 35.3722 13.0257C35.1251 12.9653 32.7703 11.3695 33.2068 12.0477C34.3677 13.8513 31.4263 14.5545 31.2554 14.6904C30.9228 14.9548 33.564 13.9175 33.4381 14.4841ZM31.4998 59.0991C16.2572 59.0991 3.90091 46.7427 3.90091 31.4996C3.90091 16.2569 16.2572 3.90055 31.4998 3.90055C46.7428 3.90055 59.0987 16.2569 59.0987 31.4996C59.0987 46.7431 46.7424 59.0991 31.4998 59.0991ZM31.4998 63C14.1037 63 0 48.8962 0 31.5C0 14.1038 14.1037 0 31.4998 0C48.8959 0 63 14.1038 63 31.5C63 48.8962 48.8959 63 31.4998 63Z" fill="black"/>
</svg>
